<svg width="28" height="28" viewBox="0 0 28 28" fill="none" xmlns="http://www.w3.org/2000/svg">
<g clip-path="url(#clip0_150_2034)">
<path d="M19.8335 4.66665V2.33332C19.8335 1.71448 19.5877 1.12099 19.1501 0.683402C18.7125 0.245817 18.119 -1.52588e-05 17.5002 -1.52588e-05L10.5002 -1.52588e-05C9.88132 -1.52588e-05 9.28783 0.245817 8.85025 0.683402C8.41266 1.12099 8.16683 1.71448 8.16683 2.33332V4.66665H2.3335V6.99998H4.66683V24.5C4.66683 25.4282 5.03558 26.3185 5.69196 26.9749C6.34833 27.6312 7.23857 28 8.16683 28H19.8335C20.7618 28 21.652 27.6312 22.3084 26.9749C22.9647 26.3185 23.3335 25.4282 23.3335 24.5V6.99998H25.6668V4.66665H19.8335ZM12.8335 19.8333H10.5002V12.8333H12.8335V19.8333ZM17.5002 19.8333H15.1668V12.8333H17.5002V19.8333ZM17.5002 4.66665H10.5002V2.33332H17.5002V4.66665Z" fill="#374957"/>
</g>
<defs>
<clipPath id="clip0_150_2034">
<rect width="28" height="28" fill="white"/>
</clipPath>
</defs>
</svg>
