<svg width="28" height="28" viewBox="0 0 28 28" fill="none" xmlns="http://www.w3.org/2000/svg">
<g clip-path="url(#clip0_149_1997)">
<path d="M20.4169 1.07001C19.1032 1.09044 17.8181 1.45717 16.6915 2.13316C15.5649 2.80914 14.6365 3.77045 14.0003 4.92001C13.364 3.77045 12.4357 2.80914 11.3091 2.13316C10.1824 1.45717 8.89734 1.09044 7.58361 1.07001C5.48937 1.161 3.51627 2.07714 2.09536 3.61828C0.674446 5.15942 -0.0787654 7.20029 0.00027686 9.29501C0.00027686 17.1992 12.7823 26.3283 13.3259 26.7157L14.0003 27.1928L14.6746 26.7157C15.2183 26.3307 28.0003 17.1992 28.0003 9.29501C28.0793 7.20029 27.3261 5.15942 25.9052 3.61828C24.4843 2.07714 22.5112 1.161 20.4169 1.07001Z" fill="#374957"/>
</g>
<defs>
<clipPath id="clip0_149_1997">
<rect width="28" height="28" fill="white"/>
</clipPath>
</defs>
</svg>
