<svg width="28" height="28" viewBox="0 0 28 28" fill="none" xmlns="http://www.w3.org/2000/svg">
<path d="M27.4877 25.0196L22.0683 19.598C26.1233 14.1791 25.0177 6.49891 19.5988 2.4439C14.1799 -1.6111 6.4997 -0.505436 2.4447 4.91347C-1.61031 10.3324 -0.504643 18.0125 4.91426 22.0675C9.26717 25.3249 15.2458 25.3249 19.5988 22.0675L25.0204 27.4892C25.7017 28.1705 26.8064 28.1705 27.4876 27.4892C28.1689 26.8078 28.1689 25.7032 27.4876 25.0219L27.4877 25.0196ZM12.3017 21.0211C7.48563 21.0211 3.58149 17.117 3.58149 12.3009C3.58149 7.48484 7.48563 3.58069 12.3017 3.58069C17.1178 3.58069 21.0219 7.48484 21.0219 12.3009C21.0168 17.1148 17.1156 21.016 12.3017 21.0211Z" fill="#374957"/>
</svg>
