<svg width="21" height="21" viewBox="0 0 21 21" fill="none" xmlns="http://www.w3.org/2000/svg">
<path d="M17.9536 10.8148H10.9536V3.81482C10.9536 3.21482 10.5536 2.81482 9.95361 2.81482C4.95361 2.81482 0.953613 6.81482 0.953613 11.8148C0.953613 16.8148 4.95361 20.8148 9.95361 20.8148C14.9536 20.8148 18.9536 16.8148 18.9536 11.8148C18.9536 11.2148 18.5536 10.8148 17.9536 10.8148ZM10.9536 18.7148C7.15361 19.3148 3.55361 16.6148 3.05361 12.8148C2.45361 9.01482 5.15361 5.41482 8.95361 4.91482V11.8148C8.95361 12.4148 9.35361 12.8148 9.95361 12.8148H16.8536C16.4536 15.9148 14.0536 18.3148 10.9536 18.7148ZM13.9536 0.814819C13.3536 0.814819 12.9536 1.21482 12.9536 1.81482V7.81482C12.9536 8.41482 13.3536 8.81482 13.9536 8.81482H19.9536C20.5536 8.81482 20.9536 8.41482 20.9536 7.81482C20.9536 3.91482 17.8536 0.814819 13.9536 0.814819ZM14.9536 6.81482V2.91482C16.9536 3.31482 18.4536 4.81482 18.8536 6.81482H14.9536Z" fill="white"/>
</svg>
